# Exported from Wings 3D 1.5.4
mtllib TunnelCap.mtl
o Cube1
#10 vertices, 8 faces
v -1.00000000 0.0000000e+0 -1.00000000
v -0.80000000 0.0000000e+0 -5.0200350e-2
v -0.90000000 2.00000000 -1.00000000
v -0.63823134 1.50890026 -0.31675426
v 1.00000000 0.0000000e+0 -1.00000000
v 0.80000000 0.0000000e+0 -5.0200350e-2
v 0.90000000 2.00000000 -1.00000000
v 0.63823134 1.50890026 -0.31675426
v -0.26666667 0.0000000e+0 0.34222222
v 0.26666667 0.0000000e+0 0.34222222
vt 0.0000000e+0 2.6469767e-3
vt 0.0000000e+0 0.67332345
vt 0.0000000e+0 0.71017051
vt 4.0261992e-2 0.48211932
vt 4.6088227e-2 0.30937795
vt 6.8399583e-2 1.00000000
vt 0.12400580 0.67854339
vt 0.14762731 0.40312075
vt 0.19537922 0.0000000e+0
vt 0.19669225 0.40312075
vt 0.19669225 0.40310287
vt 0.20070962 0.0000000e+0
vt 0.22695258 0.67332345
vt 0.25499262 0.40312075
vt 0.31478905 0.98750677
vt 0.34792176 0.31037253
vt 0.35352146 0.69224513
vt 0.36235793 0.48211932
vt 0.39606669 0.0000000e+0
vt 0.39606669 3.9576394e-3
vt 0.40261992 0.67332345
vt 0.40261992 0.57250890
vt 0.41619768 0.40261992
vt 0.45531656 0.40312075
vt 0.71228122 0.40312075
vt 0.76497785 0.57250890
vt 0.77855561 0.40261992
vt 0.79868661 1.1102230e-16
vn -0.34272434 0.52453149 0.77936304
vn 0.34272434 0.52453149 0.77936304
vn 0.0000000e+0 -1.00000000 0.0000000e+0
vn 0.0000000e+0 0.0000000e+0 -1.00000000
vn -0.97737188 4.8868594e-2 0.20580590
vn 0.0000000e+0 -1.00000000 0.0000000e+0
vn -0.73578662 0.22689132 0.63807396
vn -0.73578662 0.22689132 0.63807396
vn -0.73578662 0.22689132 0.63807396
vn -0.75163657 0.42101865 0.50772607
vn 0.0000000e+0 0.0000000e+0 -1.00000000
vn -0.75163657 0.42101865 0.50772607
vn -0.75163657 0.42101865 0.50772607
vn 0.0000000e+0 -1.00000000 0.0000000e+0
vn 0.0000000e+0 0.0000000e+0 -1.00000000
vn 0.97737188 4.8868594e-2 0.20580590
vn 0.0000000e+0 -1.00000000 0.0000000e+0
vn 0.73578662 0.22689132 0.63807396
vn 0.73578662 0.22689132 0.63807396
vn 0.73578662 0.22689132 0.63807396
vn 0.75163657 0.42101865 0.50772607
vn 0.0000000e+0 0.0000000e+0 -1.00000000
vn 0.75163657 0.42101865 0.50772607
vn 0.75163657 0.42101865 0.50772607
vn 0.0000000e+0 -1.00000000 0.0000000e+0
vn 0.0000000e+0 0.34662701 0.93800305
vn 0.0000000e+0 -1.00000000 0.0000000e+0
vn 0.0000000e+0 0.34662701 0.93800305
g Cube1_Cube1_auv
usemtl Cube1_auv
s 1
f 3/27/11 7/23/22 5/19/15 1/28/4
s 2
f 2/20/9 3/11/13 1/12/5
f 2/3/7 9/7/26 10/13/28 6/17/18 8/15/2 4/6/1
f 4/16/1 3/11/12 2/20/8
f 4/24/1 8/25/2 7/26/21 3/22/10
f 5/9/16 7/10/23 6/1/19
f 6/1/20 7/10/24 8/5/2
s 3
f 1/21/3 5/2/14 6/4/17 10/8/27 9/14/25 2/18/6
