# Exported from Wings 3D 1.5.4
mtllib Gereric_1m_Cylinder.mtl
o Cylinder1
#48 vertices, 26 faces
v 0.35355339 0.50000000 -0.35355339
v 0.43301270 0.50000000 -0.25000000
v 0.48296291 0.50000000 -0.12940952
v 0.50000000 0.50000000 -4.2610512e-17
v 0.48296291 0.50000000 0.12940952
v 0.43301270 0.50000000 0.25000000
v 0.35355339 0.50000000 0.35355339
v 0.25000000 0.50000000 0.43301270
v 0.12940952 0.50000000 0.48296291
v -1.0464392e-17 0.50000000 0.50000000
v -0.12940952 0.50000000 0.48296291
v -0.25000000 0.50000000 0.43301270
v -0.35355339 0.50000000 0.35355339
v -0.43301270 0.50000000 0.25000000
v -0.48296291 0.50000000 0.12940952
v -0.50000000 0.50000000 1.7943409e-16
v -0.48296291 0.50000000 -0.12940952
v -0.43301270 0.50000000 -0.25000000
v -0.35355339 0.50000000 -0.35355339
v -0.25000000 0.50000000 -0.43301270
v -0.12940952 0.50000000 -0.48296291
v -1.2148669e-16 0.50000000 -0.50000000
v 0.12940952 0.50000000 -0.48296291
v 0.25000000 0.50000000 -0.43301270
v 0.35355339 -0.50000000 -0.35355339
v 0.43301270 -0.50000000 -0.25000000
v 0.48296291 -0.50000000 -0.12940952
v 0.50000000 -0.50000000 -4.2610512e-17
v 0.48296291 -0.50000000 0.12940952
v 0.43301270 -0.50000000 0.25000000
v 0.35355339 -0.50000000 0.35355339
v 0.25000000 -0.50000000 0.43301270
v 0.12940952 -0.50000000 0.48296291
v -1.0464392e-17 -0.50000000 0.50000000
v -0.12940952 -0.50000000 0.48296291
v -0.25000000 -0.50000000 0.43301270
v -0.35355339 -0.50000000 0.35355339
v -0.43301270 -0.50000000 0.25000000
v -0.48296291 -0.50000000 0.12940952
v -0.50000000 -0.50000000 1.7943409e-16
v -0.48296291 -0.50000000 -0.12940952
v -0.43301270 -0.50000000 -0.25000000
v -0.35355339 -0.50000000 -0.35355339
v -0.25000000 -0.50000000 -0.43301270
v -0.12940952 -0.50000000 -0.48296291
v -1.2148669e-16 -0.50000000 -0.50000000
v 0.12940952 -0.50000000 -0.48296291
v 0.25000000 -0.50000000 -0.43301270
vt 0.0000000e+0 2.2204460e-16
vt 0.0000000e+0 1.00000000
vt 2.1264372e-16 1.1102230e-16
vt 2.1264372e-16 1.00000000
vt 8.3333333e-2 1.00000000
vt 8.3333333e-2 4.4408921e-16
vt 8.3333333e-2 1.00000000
vt 8.3333333e-2 2.2204460e-16
vt 0.16666667 1.00000000
vt 0.16666667 2.2204460e-16
vt 0.16666667 5.5511151e-16
vt 0.16666667 1.00000000
vt 0.25000000 1.00000000
vt 0.25000000 2.2204460e-16
vt 0.25000000 5.5511151e-16
vt 0.25000000 1.00000000
vt 0.33333333 7.7715612e-16
vt 0.33333333 0.50000000
vt 0.33333333 1.00000000
vt 0.33333333 1.00000000
vt 0.33333333 0.50000000
vt 0.33333333 6.6613381e-16
vt 0.33901236 0.45686349
vt 0.33901236 0.54313651
vt 0.33901236 0.45686349
vt 0.33901236 0.54313651
vt 0.35566243 0.41666667
vt 0.35566243 0.41666667
vt 0.35566243 0.58333333
vt 0.38214887 0.38214887
vt 0.38214887 0.38214887
vt 0.38214887 0.61785113
vt 0.38214887 0.61785113
vt 0.41666667 7.7715612e-16
vt 0.41666667 0.35566243
vt 0.41666667 8.8817842e-16
vt 0.41666667 1.00000000
vt 0.41666667 0.35566243
vt 0.41666667 1.00000000
vt 0.41666667 0.64433757
vt 0.41666667 0.64433757
vt 0.45686349 0.33901236
vt 0.45686349 0.33901236
vt 0.45686349 0.66098764
vt 0.45686349 0.66098764
vt 0.50000000 0.33333333
vt 0.50000000 0.33333333
vt 0.50000000 1.00000000
vt 0.50000000 4.4408921e-16
vt 0.50000000 1.00000000
vt 0.50000000 0.66666667
vt 0.50000000 2.2204460e-16
vt 0.50000000 0.66666667
vt 0.54313651 0.33901236
vt 0.54313651 0.33901236
vt 0.54313651 0.66098764
vt 0.54313651 0.66098764
vt 0.58333333 0.35566243
vt 0.58333333 1.1102230e-16
vt 0.58333333 0.35566243
vt 0.58333333 0.64433757
vt 0.58333333 1.00000000
vt 0.58333333 0.64433757
vt 0.58333333 1.1102230e-16
vt 0.58333333 1.00000000
vt 0.61785113 0.38214887
vt 0.61785113 0.38214887
vt 0.61785113 0.61785113
vt 0.61785113 0.61785113
vt 0.64433757 0.41666667
vt 0.64433757 0.41666667
vt 0.64433757 0.58333333
vt 0.64433757 0.58333333
vt 0.66098764 0.45686349
vt 0.66098764 0.45686349
vt 0.66098764 0.54313651
vt 0.66098764 0.54313651
vt 0.66666667 1.1102230e-16
vt 0.66666667 4.4408921e-16
vt 0.66666667 0.50000000
vt 0.66666667 0.50000000
vt 0.66666667 1.00000000
vt 0.66666667 1.00000000
vt 0.75000000 2.2204460e-16
vt 0.75000000 1.00000000
vt 0.75000000 4.4408921e-16
vt 0.75000000 1.00000000
vt 0.83333333 2.2204460e-16
vt 0.83333333 1.00000000
vt 0.83333333 4.4408921e-16
vt 0.83333333 1.00000000
vt 0.91666667 6.6613381e-16
vt 0.91666667 1.00000000
vt 0.91666667 4.4408921e-16
vt 0.91666667 1.00000000
vt 1.00000000 -1.1102230e-16
vt 1.00000000 6.6613381e-16
vt 1.00000000 1.00000000
vt 1.00000000 1.00000000
vn 0.0000000e+0 1.00000000 -1.0723931e-16
vn 0.70710678 0.0000000e+0 -0.70710678
vn 0.70710678 0.0000000e+0 -0.70710678
vn 0.0000000e+0 1.00000000 -1.0723931e-16
vn 0.86602540 0.0000000e+0 -0.50000000
vn 0.86602540 0.0000000e+0 -0.50000000
vn 0.0000000e+0 1.00000000 -1.0723931e-16
vn 0.96592583 0.0000000e+0 -0.25881905
vn 0.96592583 0.0000000e+0 -0.25881905
vn 0.0000000e+0 1.00000000 -1.0723931e-16
vn 1.00000000 0.0000000e+0 -2.2396062e-16
vn 1.00000000 0.0000000e+0 -2.2396062e-16
vn 0.0000000e+0 1.00000000 -1.0723931e-16
vn 0.96592583 0.0000000e+0 0.25881905
vn 0.96592583 0.0000000e+0 0.25881905
vn 0.0000000e+0 1.00000000 -1.0723931e-16
vn 0.86602540 0.0000000e+0 0.50000000
vn 0.86602540 0.0000000e+0 0.50000000
vn 0.0000000e+0 1.00000000 -1.0723931e-16
vn 0.70710678 0.0000000e+0 0.70710678
vn 0.70710678 0.0000000e+0 0.70710678
vn 0.0000000e+0 1.00000000 -1.0723931e-16
vn 0.50000000 0.0000000e+0 0.86602540
vn 0.50000000 0.0000000e+0 0.86602540
vn 0.0000000e+0 1.00000000 -1.0723931e-16
vn 0.25881905 0.0000000e+0 0.96592583
vn 0.25881905 0.0000000e+0 0.96592583
vn 0.0000000e+0 1.00000000 -1.0723931e-16
vn 3.4993847e-16 0.0000000e+0 1.00000000
vn 3.4993847e-16 0.0000000e+0 1.00000000
vn 0.0000000e+0 1.00000000 -1.0723931e-16
vn -0.25881905 0.0000000e+0 0.96592583
vn -0.25881905 0.0000000e+0 0.96592583
vn 0.0000000e+0 1.00000000 -1.0723931e-16
vn -0.50000000 0.0000000e+0 0.86602540
vn -0.50000000 0.0000000e+0 0.86602540
vn 0.0000000e+0 1.00000000 -1.0723931e-16
vn -0.70710678 0.0000000e+0 0.70710678
vn -0.70710678 0.0000000e+0 0.70710678
vn 0.0000000e+0 1.00000000 -1.0723931e-16
vn -0.86602540 0.0000000e+0 0.50000000
vn -0.86602540 0.0000000e+0 0.50000000
vn 0.0000000e+0 1.00000000 -1.0723931e-16
vn -0.96592583 0.0000000e+0 0.25881905
vn -0.96592583 0.0000000e+0 0.25881905
vn 0.0000000e+0 1.00000000 -1.0723931e-16
vn -1.00000000 0.0000000e+0 4.7591632e-16
vn -1.00000000 0.0000000e+0 4.7591632e-16
vn 0.0000000e+0 1.00000000 -1.0723931e-16
vn -0.96592583 0.0000000e+0 -0.25881905
vn -0.96592583 0.0000000e+0 -0.25881905
vn 0.0000000e+0 1.00000000 -1.0723931e-16
vn -0.86602540 0.0000000e+0 -0.50000000
vn -0.86602540 0.0000000e+0 -0.50000000
vn 0.0000000e+0 1.00000000 -1.0723931e-16
vn -0.70710678 0.0000000e+0 -0.70710678
vn -0.70710678 0.0000000e+0 -0.70710678
vn 0.0000000e+0 1.00000000 -1.0723931e-16
vn -0.50000000 0.0000000e+0 -0.86602540
vn -0.50000000 0.0000000e+0 -0.86602540
vn 0.0000000e+0 1.00000000 -1.0723931e-16
vn -0.25881905 0.0000000e+0 -0.96592583
vn -0.25881905 0.0000000e+0 -0.96592583
vn 0.0000000e+0 1.00000000 -1.0723931e-16
vn -6.5788432e-16 0.0000000e+0 -1.00000000
vn -6.5788432e-16 0.0000000e+0 -1.00000000
vn 0.0000000e+0 1.00000000 -1.0723931e-16
vn 0.25881905 0.0000000e+0 -0.96592583
vn 0.25881905 0.0000000e+0 -0.96592583
vn 0.0000000e+0 1.00000000 -1.0723931e-16
vn 0.50000000 0.0000000e+0 -0.86602540
vn 0.50000000 0.0000000e+0 -0.86602540
vn 0.0000000e+0 -1.00000000 -7.1492873e-17
vn 0.70710678 0.0000000e+0 -0.70710678
vn 0.70710678 0.0000000e+0 -0.70710678
vn 0.0000000e+0 -1.00000000 -7.1492873e-17
vn 0.86602540 0.0000000e+0 -0.50000000
vn 0.86602540 0.0000000e+0 -0.50000000
vn 0.0000000e+0 -1.00000000 -7.1492873e-17
vn 0.96592583 0.0000000e+0 -0.25881905
vn 0.96592583 0.0000000e+0 -0.25881905
vn 0.0000000e+0 -1.00000000 -7.1492873e-17
vn 1.00000000 0.0000000e+0 -2.2396062e-16
vn 1.00000000 0.0000000e+0 -2.2396062e-16
vn 0.0000000e+0 -1.00000000 -7.1492873e-17
vn 0.96592583 0.0000000e+0 0.25881905
vn 0.96592583 0.0000000e+0 0.25881905
vn 0.0000000e+0 -1.00000000 -7.1492873e-17
vn 0.86602540 0.0000000e+0 0.50000000
vn 0.86602540 0.0000000e+0 0.50000000
vn 0.0000000e+0 -1.00000000 -7.1492873e-17
vn 0.70710678 0.0000000e+0 0.70710678
vn 0.70710678 0.0000000e+0 0.70710678
vn 0.0000000e+0 -1.00000000 -7.1492873e-17
vn 0.50000000 0.0000000e+0 0.86602540
vn 0.50000000 0.0000000e+0 0.86602540
vn 0.0000000e+0 -1.00000000 -7.1492873e-17
vn 0.25881905 0.0000000e+0 0.96592583
vn 0.25881905 0.0000000e+0 0.96592583
vn 0.0000000e+0 -1.00000000 -7.1492873e-17
vn 3.4993847e-16 0.0000000e+0 1.00000000
vn 3.4993847e-16 0.0000000e+0 1.00000000
vn 0.0000000e+0 -1.00000000 -7.1492873e-17
vn -0.25881905 0.0000000e+0 0.96592583
vn -0.25881905 0.0000000e+0 0.96592583
vn 0.0000000e+0 -1.00000000 -7.1492873e-17
vn -0.50000000 0.0000000e+0 0.86602540
vn -0.50000000 0.0000000e+0 0.86602540
vn 0.0000000e+0 -1.00000000 -7.1492873e-17
vn -0.70710678 0.0000000e+0 0.70710678
vn -0.70710678 0.0000000e+0 0.70710678
vn 0.0000000e+0 -1.00000000 -7.1492873e-17
vn -0.86602540 0.0000000e+0 0.50000000
vn -0.86602540 0.0000000e+0 0.50000000
vn 0.0000000e+0 -1.00000000 -7.1492873e-17
vn -0.96592583 0.0000000e+0 0.25881905
vn -0.96592583 0.0000000e+0 0.25881905
vn 0.0000000e+0 -1.00000000 -7.1492873e-17
vn -1.00000000 0.0000000e+0 4.7591632e-16
vn -1.00000000 0.0000000e+0 4.7591632e-16
vn 0.0000000e+0 -1.00000000 -7.1492873e-17
vn -0.96592583 0.0000000e+0 -0.25881905
vn -0.96592583 0.0000000e+0 -0.25881905
vn 0.0000000e+0 -1.00000000 -7.1492873e-17
vn -0.86602540 0.0000000e+0 -0.50000000
vn -0.86602540 0.0000000e+0 -0.50000000
vn 0.0000000e+0 -1.00000000 -7.1492873e-17
vn -0.70710678 0.0000000e+0 -0.70710678
vn -0.70710678 0.0000000e+0 -0.70710678
vn 0.0000000e+0 -1.00000000 -7.1492873e-17
vn -0.50000000 0.0000000e+0 -0.86602540
vn -0.50000000 0.0000000e+0 -0.86602540
vn 0.0000000e+0 -1.00000000 -7.1492873e-17
vn -0.25881905 0.0000000e+0 -0.96592583
vn -0.25881905 0.0000000e+0 -0.96592583
vn 0.0000000e+0 -1.00000000 -7.1492873e-17
vn -6.5788432e-16 0.0000000e+0 -1.00000000
vn -6.5788432e-16 0.0000000e+0 -1.00000000
vn 0.0000000e+0 -1.00000000 -7.1492873e-17
vn 0.25881905 0.0000000e+0 -0.96592583
vn 0.25881905 0.0000000e+0 -0.96592583
vn 0.0000000e+0 -1.00000000 -7.1492873e-17
vn 0.50000000 0.0000000e+0 -0.86602540
vn 0.50000000 0.0000000e+0 -0.86602540
g Cylinder1_Cylinder1_auv
usemtl Cylinder1_auv
s 1
f 1/81/1 24/76/70 23/72/67 22/68/64 21/61/61 20/56/58 19/53/55 18/44/52 17/40/49 16/33/46 15/29/43 14/26/40 13/21/37 12/25/34 11/27/31 10/31/28 9/38/25 8/43/22 7/47/19 6/55/16 5/60/13 4/67/10 3/71/7 2/75/4
f 26/23/76 27/28/79 28/30/82 29/35/85 30/42/88 31/46/91 32/54/94 33/58/97 34/66/100 35/70/103 36/74/106 37/80/109 38/77/112 39/73/115 40/69/118 41/63/121 42/57/124 43/51/127 44/45/130 45/41/133 46/32/136 47/29/139 48/24/142 25/18/73
s 2
f 1/13/2 25/14/74 48/22/143 24/20/71
f 2/9/6 26/10/78 25/14/75 1/13/3
f 3/5/9 27/8/81 26/10/77 2/9/5
f 4/2/12 28/3/84 27/8/80 3/5/8
f 5/95/15 29/94/87 28/96/83 4/98/11
f 6/89/18 30/88/90 29/94/86 5/95/14
f 7/85/21 31/84/93 30/88/89 6/89/17
f 8/83/24 32/78/96 31/84/92 7/85/20
f 9/62/27 33/59/99 32/78/95 8/83/23
f 10/50/30 34/49/102 33/59/98 9/62/26
f 11/39/33 35/34/105 34/49/101 10/50/29
f 12/19/36 36/17/108 35/34/104 11/39/32
f 13/16/39 37/15/111 36/17/107 12/19/35
f 14/12/42 38/11/114 37/15/110 13/16/38
f 15/7/45 39/6/117 38/11/113 14/12/41
f 16/4/48 40/1/120 39/6/116 15/7/44
f 17/93/51 41/92/123 40/97/119 16/99/47
f 18/91/54 42/90/126 41/92/122 17/93/50
f 19/87/57 43/86/129 42/90/125 18/91/53
f 20/82/60 44/79/132 43/86/128 19/87/56
f 21/65/63 45/64/135 44/79/131 20/82/59
f 22/48/66 46/52/138 45/64/134 21/65/62
f 23/37/69 47/36/141 46/52/137 22/48/65
f 24/20/72 48/22/144 47/36/140 23/37/68
