# Exported from Wings 3D 1.5.4
mtllib open_cylinder.mtl
o Cylinder1_cut8
#16 vertices, 14 faces
v 0.35355339 0.50000000 0.35355339
v 0.50000000 0.50000000 -1.1230499e-16
v 0.48296291 0.50000000 0.12940952
v 0.43301270 0.50000000 0.25000000
v 0.35355339 -0.50000000 0.35355339
v 0.50000000 -0.50000000 -1.1230499e-16
v 0.48296291 -0.50000000 0.12940952
v 0.43301270 -0.50000000 0.25000000
v 0.33901180 0.50000000 0.33901180
v 0.47943509 0.50000000 -1.4006056e-16
v 0.46309873 0.50000000 0.12408693
v 0.41520296 0.50000000 0.23971754
v 0.33901180 -0.50000000 0.33901180
v 0.47943509 -0.50000000 -1.4006056e-16
v 0.46309873 -0.50000000 0.12408693
v 0.41520296 -0.50000000 0.23971754
vt 8.5411436e-2 0.49341333
vt 9.0921068e-2 0.53526314
vt 9.2061933e-2 0.49341333
vt 9.7344954e-2 0.53354186
vt 0.10707449 0.57426095
vt 0.11283399 0.57093570
vt 0.13277087 0.60774913
vt 0.13747348 0.60304652
vt 0.24613333 0.50603425
vt 0.24613333 0.82942471
vt 0.27824415 0.50603425
vt 0.27824415 0.82942471
vt 0.31563799 0.50603425
vt 0.31563799 0.82942471
vt 0.35576652 0.50603425
vt 0.35576652 0.82942471
vt 0.35673985 0.60304652
vt 0.36144246 0.60774913
vt 0.38137934 0.57093570
vt 0.38713884 0.57426095
vt 0.39686838 0.53354186
vt 0.40215140 0.49341333
vt 0.40329227 0.53526314
vt 0.40880190 0.49341333
vt 0.61294722 1.8814588e-3
vt 0.61294722 0.50654521
vt 0.65985683 1.8814588e-3
vt 0.65985683 0.50654521
vt 0.70356963 1.8814588e-3
vt 0.70356963 0.50654521
vt 0.74110667 1.8814588e-3
vt 0.74110667 0.50654521
vn 5.2113461e-2 0.60423814 0.79509776
vn 0.59906880 0.60423814 -0.52536924
vn 0.68007224 0.71013792 0.18222481
vn 0.60973609 0.71013792 0.35203130
vn 5.2113461e-2 -0.60423814 0.79509776
vn 0.59906880 -0.60423814 -0.52536924
vn 0.68007224 -0.71013792 0.18222481
vn 0.60973609 -0.71013792 0.35203130
vn -0.83089390 0.55375940 5.4459663e-2
vn -0.54902191 0.55375940 -0.62603951
vn -0.68007224 0.71013792 -0.18222481
vn -0.60973609 0.71013792 -0.35203130
vn -0.83089390 -0.55375940 5.4459663e-2
vn -0.54902191 -0.55375940 -0.62603951
vn -0.68007224 -0.71013792 -0.18222481
vn -0.60973609 -0.71013792 -0.35203130
g Cylinder1_cut8_Cylinder1_auv
usemtl Cylinder1_auv
s 1
f 1/26/1 5/25/5 8/27/8 4/28/4
f 1/24/1 9/16/9 13/3/13 5/25/5
f 2/18/2 10/17/10 11/19/11 3/20/3
f 3/30/3 7/29/7 6/31/6 2/32/2
f 3/20/3 11/19/11 12/21/12 4/23/4
f 4/28/4 8/27/8 7/29/7 3/30/3
f 4/23/4 12/21/12 9/22/9 1/24/1
f 5/1/5 13/3/13 16/4/16 8/2/8
f 6/7/6 14/9/14 10/17/10 2/32/2
f 7/5/7 15/6/15 14/8/14 6/7/6
f 8/2/8 16/4/16 15/6/15 7/5/7
f 10/10/10 14/9/14 15/11/15 11/12/11
f 11/12/11 15/11/15 16/13/16 12/14/12
f 12/14/12 16/13/16 13/15/13 9/16/9
o Cylinder1_cut7
#16 vertices, 14 faces
v -3.5936132e-16 0.50000000 -0.50000000
v 0.12940952 0.50000000 -0.48296291
v 0.25000000 0.50000000 -0.43301270
v 0.35355339 0.50000000 -0.35355339
v -3.5936132e-16 -0.50000000 -0.50000000
v 0.12940952 -0.50000000 -0.48296291
v 0.25000000 -0.50000000 -0.43301270
v 0.35355339 -0.50000000 -0.35355339
v -3.3160574e-16 0.50000000 -0.47943509
v 0.12408693 0.50000000 -0.46309873
v 0.23971754 0.50000000 -0.41520296
v 0.33901180 0.50000000 -0.33901180
v -3.3160574e-16 -0.50000000 -0.47943509
v 0.12408693 -0.50000000 -0.46309873
v 0.23971754 -0.50000000 -0.41520296
v 0.33901180 -0.50000000 -0.33901180
vt 2.6866969e-2 0.50603425
vt 2.6866969e-2 0.82942471
vt 5.8977784e-2 0.50603425
vt 5.8977784e-2 0.82942471
vt 9.6371621e-2 0.50603425
vt 9.6371621e-2 0.82942471
vt 0.13277087 0.60774913
vt 0.13650015 0.50603425
vt 0.13650015 0.82942471
vt 0.13747348 0.60304652
vt 0.16625905 0.63344551
vt 0.16958430 0.62768601
vt 0.20525686 0.64959893
vt 0.20697814 0.64317505
vt 0.24710667 0.64845807
vt 0.24710667 0.65510856
vt 0.28723520 0.64317505
vt 0.28895647 0.64959893
vt 0.32462903 0.62768601
vt 0.32795428 0.63344551
vt 0.35673985 0.60304652
vt 0.36144246 0.60774913
vt 0.46457333 0.16605333
vt 0.48478777 0.99742521
vt 0.86926612 1.8814588e-3
vt 0.86926612 0.50654521
vt 0.91617573 1.8814588e-3
vt 0.91617573 0.50654521
vt 0.95988853 1.8814588e-3
vt 0.95988853 0.50654521
vt 0.99742556 1.8814588e-3
vt 0.99742556 0.50654521
vn -0.52536924 0.60423814 -0.59906880
vn 0.18222481 0.71013792 -0.68007224
vn 0.35203130 0.71013792 -0.60973609
vn 0.79509776 0.60423814 -5.2113461e-2
vn -0.52536924 -0.60423814 -0.59906880
vn 0.18222481 -0.71013792 -0.68007224
vn 0.35203130 -0.71013792 -0.60973609
vn 0.79509776 -0.60423814 -5.2113461e-2
vn -0.62603951 0.55375940 0.54902191
vn -0.18222481 0.71013792 0.68007224
vn -0.35203130 0.71013792 0.60973609
vn 5.4459663e-2 0.55375940 0.83089390
vn -0.62603951 -0.55375940 0.54902191
vn -0.18222481 -0.71013792 0.68007224
vn -0.35203130 -0.71013792 0.60973609
vn 5.4459663e-2 -0.55375940 0.83089390
g Cylinder1_cut7_Cylinder1_auv
usemtl Cylinder1_auv
s 1
f 17/39/17 25/42/25 26/44/26 18/43/18
f 18/62/18 22/61/22 21/63/21 17/64/17
f 18/43/18 26/44/26 27/46/27 19/45/19
f 19/60/19 23/59/23 22/61/22 18/62/18
f 19/45/19 27/46/27 28/47/28 20/48/20
f 20/58/20 24/57/24 23/59/23 19/60/19
f 20/48/20 28/41/28 32/47/32 24/57/24
f 21/54/21 29/55/29 25/42/25 17/56/17
f 22/52/22 30/51/30 29/53/29 21/54/21
f 23/50/23 31/49/31 30/51/30 22/52/22
f 24/48/24 32/47/32 31/49/31 23/50/23
f 25/34/25 29/33/29 30/35/30 26/36/26
f 26/36/26 30/35/30 31/37/31 27/38/27
f 27/38/27 31/37/31 32/40/32 28/41/28
o Cylinder1_cut6
#16 vertices, 14 faces
v -0.35355339 0.50000000 -0.35355339
v -0.25000000 0.50000000 -0.43301270
v -0.12940952 0.50000000 -0.48296291
v -3.5936132e-16 0.50000000 -0.50000000
v -0.35355339 -0.50000000 -0.35355339
v -0.25000000 -0.50000000 -0.43301270
v -0.12940952 -0.50000000 -0.48296291
v -3.5936132e-16 -0.50000000 -0.50000000
v -0.33901180 0.50000000 -0.33901180
v -0.23971754 0.50000000 -0.41520296
v -0.12408693 0.50000000 -0.46309873
v -3.3160574e-16 0.50000000 -0.47943509
v -0.33901180 -0.50000000 -0.33901180
v -0.23971754 -0.50000000 -0.41520296
v -0.12408693 -0.50000000 -0.46309873
v -3.3160574e-16 -0.50000000 -0.47943509
vt 2.6866969e-2 0.82942471
vt 8.5411436e-2 0.49341333
vt 9.0921068e-2 0.53526314
vt 9.2061933e-2 0.49341333
vt 9.7344954e-2 0.53354186
vt 0.10707449 0.57426095
vt 0.11283399 0.57093570
vt 0.13277087 0.60774913
vt 0.13747348 0.60304652
vt 0.35494015 0.16605333
vt 0.35494015 0.48944379
vt 0.35673985 0.60304652
vt 0.36144246 0.60774913
vt 0.38137934 0.57093570
vt 0.38713884 0.57426095
vt 0.39506868 0.16605333
vt 0.39506868 0.48944379
vt 0.39686838 0.53354186
vt 0.40215140 0.49341333
vt 0.40329227 0.53526314
vt 0.40880190 0.49341333
vt 0.43246252 0.16605333
vt 0.43246252 0.48944379
vt 0.46457333 0.16605333
vt 0.46457333 0.48944379
vt 0.48478777 0.49276146
vt 0.48478777 0.99742521
vt 0.52232480 0.49276146
vt 0.52232480 0.99742521
vt 0.56603760 0.49276146
vt 0.56603760 0.99742521
vt 0.61294722 0.49276146
vt 0.61294722 0.99742521
vt 0.99742556 1.8814588e-3
vn -0.79509776 0.60423814 -5.2113461e-2
vn -0.35203130 0.71013792 -0.60973609
vn -0.18222481 0.71013792 -0.68007224
vn 0.52536924 0.60423814 -0.59906880
vn -0.79509776 -0.60423814 -5.2113461e-2
vn -0.35203130 -0.71013792 -0.60973609
vn -0.18222481 -0.71013792 -0.68007224
vn 0.52536924 -0.60423814 -0.59906880
vn -5.4459663e-2 0.55375940 0.83089390
vn 0.35203130 0.71013792 0.60973609
vn 0.18222481 0.71013792 0.68007224
vn 0.62603951 0.55375940 0.54902191
vn -5.4459663e-2 -0.55375940 0.83089390
vn 0.35203130 -0.71013792 0.60973609
vn 0.18222481 -0.71013792 0.68007224
vn 0.62603951 -0.55375940 0.54902191
g Cylinder1_cut6_Cylinder1_auv
usemtl Cylinder1_auv
s 1
f 33/66/33 41/68/41 42/69/42 34/67/34
f 34/95/34 38/94/38 37/96/37 33/97/33
f 34/67/34 42/69/42 43/71/43 35/70/35
f 35/93/35 39/92/39 38/94/38 34/95/34
f 35/70/35 43/71/43 44/73/44 36/72/36
f 36/91/36 40/90/40 39/92/39 35/93/35
f 36/72/36 44/65/44 48/76/48 40/98/40
f 37/85/37 45/74/45 41/68/41 33/97/33
f 38/84/38 46/82/46 45/83/45 37/85/37
f 39/79/39 47/78/47 46/82/46 38/84/38
f 40/77/40 48/76/48 47/78/47 39/79/39
f 41/75/41 45/74/45 46/80/46 42/81/42
f 42/81/42 46/80/46 47/86/47 43/87/43
f 43/87/43 47/86/47 48/88/48 44/89/44
o Cylinder1_cut5
#16 vertices, 14 faces
v -0.50000000 0.50000000 1.3749519e-16
v -0.48296291 0.50000000 -0.12940952
v -0.43301270 0.50000000 -0.25000000
v -0.35355339 0.50000000 -0.35355339
v -0.50000000 -0.50000000 1.3749519e-16
v -0.48296291 -0.50000000 -0.12940952
v -0.43301270 -0.50000000 -0.25000000
v -0.35355339 -0.50000000 -0.35355339
v -0.47943509 0.50000000 1.0973962e-16
v -0.46309873 0.50000000 -0.12408693
v -0.41520296 0.50000000 -0.23971754
v -0.33901180 0.50000000 -0.33901180
v -0.47943509 -0.50000000 1.0973962e-16
v -0.46309873 -0.50000000 -0.12408693
v -0.41520296 -0.50000000 -0.23971754
v -0.33901180 -0.50000000 -0.33901180
vt 8.5411436e-2 0.49341333
vt 9.0921068e-2 0.45156353
vt 9.2061933e-2 0.49341333
vt 9.7344954e-2 0.45328480
vt 0.10707449 0.41256572
vt 0.11283399 0.41589097
vt 0.13277087 0.37907754
vt 0.13747348 0.38378015
vt 0.24530697 0.16605333
vt 0.24530697 0.48944379
vt 0.27741778 0.16605333
vt 0.27741778 0.48944379
vt 0.31481162 0.16605333
vt 0.31481162 0.48944379
vt 0.35494015 0.16605333
vt 0.35494015 0.48944379
vt 0.35673985 0.38378015
vt 0.36144246 0.37907754
vt 0.38137934 0.41589097
vt 0.38713884 0.41256572
vt 0.39686838 0.45328480
vt 0.40215140 0.49341333
vt 0.40329227 0.45156353
vt 0.40880190 0.49341333
vt 0.61294722 0.49276146
vt 0.61294722 0.99742521
vt 0.65985683 0.49276146
vt 0.65985683 0.99742521
vt 0.70356963 0.49276146
vt 0.70356963 0.99742521
vt 0.74110667 0.49276146
vt 0.74110667 0.99742521
vn -0.59906880 0.60423814 0.52536924
vn -0.68007224 0.71013792 -0.18222481
vn -0.60973609 0.71013792 -0.35203130
vn -5.2113461e-2 0.60423814 -0.79509776
vn -0.59906880 -0.60423814 0.52536924
vn -0.68007224 -0.71013792 -0.18222481
vn -0.60973609 -0.71013792 -0.35203130
vn -5.2113461e-2 -0.60423814 -0.79509776
vn 0.54902191 0.55375940 0.62603951
vn 0.68007224 0.71013792 0.18222481
vn 0.60973609 0.71013792 0.35203130
vn 0.83089390 0.55375940 -5.4459663e-2
vn 0.54902191 -0.55375940 0.62603951
vn 0.68007224 -0.71013792 0.18222481
vn 0.60973609 -0.71013792 0.35203130
vn 0.83089390 -0.55375940 -5.4459663e-2
g Cylinder1_cut5_Cylinder1_auv
usemtl Cylinder1_auv
s 1
f 49/105/49 57/106/57 58/104/58 50/103/50
f 50/128/50 54/127/54 53/129/53 49/130/49
f 50/103/50 58/104/58 59/102/59 51/100/51
f 51/126/51 55/125/55 54/127/54 50/128/50
f 51/100/51 59/102/59 60/101/60 52/99/52
f 52/124/52 56/123/56 55/125/55 51/126/51
f 52/99/52 60/114/60 64/120/64 56/123/56
f 53/116/53 61/107/61 57/106/57 49/130/49
f 54/118/54 62/117/62 61/115/61 53/116/53
f 55/121/55 63/119/63 62/117/62 54/118/54
f 56/122/56 64/120/64 63/119/63 55/121/55
f 57/108/57 61/107/61 62/109/62 58/110/58
f 58/110/58 62/109/62 63/111/63 59/112/59
f 59/112/59 63/111/63 64/113/64 60/114/60
o Cylinder1_cut4
#16 vertices, 14 faces
v -0.35355339 0.50000000 0.35355339
v -0.43301270 0.50000000 0.25000000
v -0.48296291 0.50000000 0.12940952
v -0.50000000 0.50000000 1.3749519e-16
v -0.35355339 -0.50000000 0.35355339
v -0.43301270 -0.50000000 0.25000000
v -0.48296291 -0.50000000 0.12940952
v -0.50000000 -0.50000000 1.3749519e-16
v -0.33901180 0.50000000 0.33901180
v -0.41520296 0.50000000 0.23971754
v -0.46309873 0.50000000 0.12408693
v -0.47943509 0.50000000 1.0973962e-16
v -0.33901180 -0.50000000 0.33901180
v -0.41520296 -0.50000000 0.23971754
v -0.46309873 -0.50000000 0.12408693
v -0.47943509 -0.50000000 1.0973962e-16
vt 0.13277087 0.37907754
vt 0.13567379 0.16605333
vt 0.13567379 0.48944379
vt 0.13747348 0.38378015
vt 0.16625905 0.35338116
vt 0.16958430 0.35914066
vt 0.17580232 0.16605333
vt 0.17580232 0.48944379
vt 0.20525686 0.33722773
vt 0.20697814 0.34365162
vt 0.21319615 0.16605333
vt 0.21319615 0.48944379
vt 0.24530697 0.16605333
vt 0.24530697 0.48944379
vt 0.24710667 0.33171810
vt 0.24710667 0.33171810
vt 0.24710667 0.33836860
vt 0.24710667 0.33836860
vt 0.28723520 0.34365162
vt 0.28895647 0.33722773
vt 0.32462903 0.35914066
vt 0.32795428 0.35338116
vt 0.35673985 0.38378015
vt 0.36144246 0.37907754
vt 0.74110667 0.49276146
vt 0.74110667 0.99742521
vt 0.77864370 0.49276146
vt 0.77864370 0.99742521
vt 0.82235650 0.49276146
vt 0.82235650 0.99742521
vt 0.86926612 0.49276146
vt 0.86926612 0.99742521
vn -5.2113461e-2 0.60423814 0.79509776
vn -0.60973609 0.71013792 0.35203130
vn -0.68007224 0.71013792 0.18222481
vn -0.59906880 0.60423814 -0.52536924
vn -5.2113461e-2 -0.60423814 0.79509776
vn -0.60973609 -0.71013792 0.35203130
vn -0.68007224 -0.71013792 0.18222481
vn -0.59906880 -0.60423814 -0.52536924
vn 0.83089390 0.55375940 5.4459663e-2
vn 0.60973609 0.71013792 -0.35203130
vn 0.68007224 0.71013792 -0.18222481
vn 0.54902191 0.55375940 -0.62603951
vn 0.83089390 -0.55375940 5.4459663e-2
vn 0.60973609 -0.71013792 -0.35203130
vn 0.68007224 -0.71013792 -0.18222481
vn 0.54902191 -0.55375940 -0.62603951
g Cylinder1_cut4_Cylinder1_auv
usemtl Cylinder1_auv
s 1
f 65/145/65 73/147/73 74/140/74 66/139/66
f 66/160/66 70/159/70 69/161/69 65/162/65
f 66/139/66 74/140/74 75/136/75 67/135/67
f 67/158/67 71/157/71 70/159/70 66/160/66
f 67/135/67 75/136/75 76/134/76 68/131/68
f 68/156/68 72/155/72 71/157/71 67/158/67
f 68/131/68 76/144/76 80/153/80 72/155/72
f 69/146/69 77/132/77 73/147/73 65/162/65
f 70/150/70 78/149/78 77/148/77 69/146/69
f 71/152/71 79/151/79 78/149/78 70/150/70
f 72/154/72 80/153/80 79/151/79 71/152/71
f 73/133/73 77/132/77 78/137/78 74/138/74
f 74/138/74 78/137/78 79/141/79 75/142/75
f 75/142/75 79/141/79 80/143/80 76/144/76
o Cylinder1_cut3
#16 vertices, 14 faces
v 8.4727891e-17 0.50000000 0.50000000
v -0.12940952 0.50000000 0.48296291
v -0.25000000 0.50000000 0.43301270
v -0.35355339 0.50000000 0.35355339
v 8.4727891e-17 -0.50000000 0.50000000
v -0.12940952 -0.50000000 0.48296291
v -0.25000000 -0.50000000 0.43301270
v -0.35355339 -0.50000000 0.35355339
v 5.6972316e-17 0.50000000 0.47943509
v -0.12408693 0.50000000 0.46309873
v -0.23971754 0.50000000 0.41520296
v -0.33901180 0.50000000 0.33901180
v 5.6972316e-17 -0.50000000 0.47943509
v -0.12408693 -0.50000000 0.46309873
v -0.23971754 -0.50000000 0.41520296
v -0.33901180 -0.50000000 0.33901180
vt 2.6040604e-2 0.16605333
vt 2.6040604e-2 0.48944379
vt 5.8151420e-2 0.16605333
vt 5.8151420e-2 0.48944379
vt 9.5545256e-2 0.16605333
vt 9.5545256e-2 0.48944379
vt 0.13277087 0.37907754
vt 0.13567379 0.16605333
vt 0.13567379 0.48944379
vt 0.13747348 0.38378015
vt 0.16625905 0.35338116
vt 0.16958430 0.35914066
vt 0.20525686 0.33722773
vt 0.20697814 0.34365162
vt 0.24710667 0.33171810
vt 0.24710667 0.33171810
vt 0.24710667 0.33836860
vt 0.24710667 0.33836860
vt 0.28723520 0.34365162
vt 0.28895647 0.33722773
vt 0.32462903 0.35914066
vt 0.32795428 0.35338116
vt 0.35673985 0.38378015
vt 0.36144246 0.37907754
vt 0.46539970 0.50603425
vt 0.48478777 0.50654521
vt 0.86926612 0.49276146
vt 0.86926612 0.99742521
vt 0.91617573 0.49276146
vt 0.91617573 0.99742521
vt 0.95988853 0.49276146
vt 0.95988853 0.99742521
vt 0.99742556 0.49276146
vt 0.99742556 0.99742521
vn 0.52536924 0.60423814 0.59906880
vn -0.18222481 0.71013792 0.68007224
vn -0.35203130 0.71013792 0.60973609
vn -0.79509776 0.60423814 5.2113461e-2
vn 0.52536924 -0.60423814 0.59906880
vn -0.18222481 -0.71013792 0.68007224
vn -0.35203130 -0.71013792 0.60973609
vn -0.79509776 -0.60423814 5.2113461e-2
vn 0.62603951 0.55375940 -0.54902191
vn 0.18222481 0.71013792 -0.68007224
vn 0.35203130 0.71013792 -0.60973609
vn -5.4459663e-2 0.55375940 -0.83089390
vn 0.62603951 -0.55375940 -0.54902191
vn 0.18222481 -0.71013792 -0.68007224
vn 0.35203130 -0.71013792 -0.60973609
vn -5.4459663e-2 -0.55375940 -0.83089390
g Cylinder1_cut3_Cylinder1_auv
usemtl Cylinder1_auv
s 1
f 81/186/81 89/185/89 90/183/90 82/184/82
f 82/194/82 86/193/86 85/195/85 81/196/81
f 82/184/82 90/183/90 91/181/91 83/182/83
f 83/192/83 87/191/87 86/193/86 82/194/82
f 83/182/83 91/181/91 92/179/92 84/177/84
f 84/190/84 88/189/88 87/191/87 83/192/83
f 84/177/84 92/171/92 96/180/96 88/189/88
f 85/169/85 93/187/93 89/185/89 81/188/81
f 86/173/86 94/174/94 93/172/93 85/169/85
f 87/175/87 95/176/95 94/174/94 86/173/86
f 88/178/88 96/180/96 95/176/95 87/175/87
f 89/164/89 93/163/93 94/165/94 90/166/90
f 90/166/90 94/165/94 95/167/95 91/168/91
f 91/168/91 95/167/95 96/170/96 92/171/92
o Cylinder1_cut2
#16 vertices, 14 faces
v 0.35355339 0.50000000 0.35355339
v 0.25000000 0.50000000 0.43301270
v 0.12940952 0.50000000 0.48296291
v 8.4727891e-17 0.50000000 0.50000000
v 0.35355339 -0.50000000 0.35355339
v 0.25000000 -0.50000000 0.43301270
v 0.12940952 -0.50000000 0.48296291
v 8.4727891e-17 -0.50000000 0.50000000
v 0.33901180 0.50000000 0.33901180
v 0.23971754 0.50000000 0.41520296
v 0.12408693 0.50000000 0.46309873
v 5.6972316e-17 0.50000000 0.47943509
v 0.33901180 -0.50000000 0.33901180
v 0.23971754 -0.50000000 0.41520296
v 0.12408693 -0.50000000 0.46309873
v 5.6972316e-17 -0.50000000 0.47943509
vt 2.6040604e-2 0.48944379
vt 8.5411436e-2 0.49341333
vt 9.0921068e-2 0.45156353
vt 9.2061933e-2 0.49341333
vt 9.7344954e-2 0.45328480
vt 0.10707449 0.41256572
vt 0.11283399 0.41589097
vt 0.13277087 0.37907754
vt 0.13747348 0.38378015
vt 0.35576652 0.50603425
vt 0.35576652 0.82942471
vt 0.35673985 0.38378015
vt 0.36144246 0.37907754
vt 0.38137934 0.41589097
vt 0.38713884 0.41256572
vt 0.39589505 0.50603425
vt 0.39589505 0.82942471
vt 0.39686838 0.45328480
vt 0.40215140 0.49341333
vt 0.40329227 0.45156353
vt 0.40880190 0.49341333
vt 0.43328888 0.50603425
vt 0.43328888 0.82942471
vt 0.46539970 0.50603425
vt 0.46539970 0.82942471
vt 0.48478777 1.8814588e-3
vt 0.48478777 0.50654521
vt 0.52232480 1.8814588e-3
vt 0.52232480 0.50654521
vt 0.56603760 1.8814588e-3
vt 0.56603760 0.50654521
vt 0.61294722 1.8814588e-3
vt 0.61294722 0.50654521
vt 0.99742556 0.49276146
vn 0.79509776 0.60423814 5.2113461e-2
vn 0.35203130 0.71013792 0.60973609
vn 0.18222481 0.71013792 0.68007224
vn -0.52536924 0.60423814 0.59906880
vn 0.79509776 -0.60423814 5.2113461e-2
vn 0.35203130 -0.71013792 0.60973609
vn 0.18222481 -0.71013792 0.68007224
vn -0.52536924 -0.60423814 0.59906880
vn 5.4459663e-2 0.55375940 -0.83089390
vn -0.35203130 0.71013792 -0.60973609
vn -0.18222481 0.71013792 -0.68007224
vn -0.62603951 0.55375940 -0.54902191
vn 5.4459663e-2 -0.55375940 -0.83089390
vn -0.35203130 -0.71013792 -0.60973609
vn -0.18222481 -0.71013792 -0.68007224
vn -0.62603951 -0.55375940 -0.54902191
g Cylinder1_cut2_Cylinder1_auv
usemtl Cylinder1_auv
s 1
f 97/217/97 105/215/105 106/214/106 98/216/98
f 98/227/98 102/226/102 101/228/101 97/229/97
f 98/216/98 106/214/106 107/210/107 99/211/99
f 99/225/99 103/224/103 102/226/102 98/227/98
f 99/211/99 107/210/107 108/208/108 100/209/100
f 100/223/100 104/222/104 103/224/103 99/225/99
f 100/209/100 108/197/108 112/205/112 104/230/104
f 101/198/101 109/206/109 105/215/105 97/229/97
f 102/199/102 110/201/110 109/200/109 101/198/101
f 103/202/103 111/203/111 110/201/110 102/199/102
f 104/204/104 112/205/112 111/203/111 103/202/103
f 105/207/105 109/206/109 110/212/110 106/213/106
f 106/213/106 110/212/110 111/218/111 107/219/107
f 107/219/107 111/218/111 112/220/112 108/221/108
o Cylinder1
#16 vertices, 14 faces
v 0.35355339 0.50000000 -0.35355339
v 0.43301270 0.50000000 -0.25000000
v 0.48296291 0.50000000 -0.12940952
v 0.50000000 0.50000000 -1.1230499e-16
v 0.35355339 -0.50000000 -0.35355339
v 0.43301270 -0.50000000 -0.25000000
v 0.48296291 -0.50000000 -0.12940952
v 0.50000000 -0.50000000 -1.1230499e-16
v 0.33901180 0.50000000 -0.33901180
v 0.41520296 0.50000000 -0.23971754
v 0.46309873 0.50000000 -0.12408693
v 0.47943509 0.50000000 -1.4006056e-16
v 0.33901180 -0.50000000 -0.33901180
v 0.41520296 -0.50000000 -0.23971754
v 0.46309873 -0.50000000 -0.12408693
v 0.47943509 -0.50000000 -1.4006056e-16
vt 0.13277087 0.60774913
vt 0.13650015 0.50603425
vt 0.13650015 0.82942471
vt 0.13747348 0.60304652
vt 0.16625905 0.63344551
vt 0.16958430 0.62768601
vt 0.17662868 0.50603425
vt 0.17662868 0.82942471
vt 0.20525686 0.64959893
vt 0.20697814 0.64317505
vt 0.21402252 0.50603425
vt 0.21402252 0.82942471
vt 0.24613333 0.50603425
vt 0.24613333 0.82942471
vt 0.24710667 0.64845807
vt 0.24710667 0.65510856
vt 0.28723520 0.64317505
vt 0.28895647 0.64959893
vt 0.32462903 0.62768601
vt 0.32795428 0.63344551
vt 0.35673985 0.60304652
vt 0.36144246 0.60774913
vt 0.74110667 1.8814588e-3
vt 0.74110667 0.50654521
vt 0.77864370 1.8814588e-3
vt 0.77864370 0.50654521
vt 0.82235650 1.8814588e-3
vt 0.82235650 0.50654521
vt 0.86926612 1.8814588e-3
vt 0.86926612 0.50654521
vn 5.2113461e-2 0.60423814 -0.79509776
vn 0.60973609 0.71013792 -0.35203130
vn 0.68007224 0.71013792 -0.18222481
vn 0.59906880 0.60423814 0.52536924
vn 5.2113461e-2 -0.60423814 -0.79509776
vn 0.60973609 -0.71013792 -0.35203130
vn 0.68007224 -0.71013792 -0.18222481
vn 0.59906880 -0.60423814 0.52536924
vn -0.83089390 0.55375940 -5.4459663e-2
vn -0.60973609 0.71013792 0.35203130
vn -0.68007224 0.71013792 0.18222481
vn -0.54902191 0.55375940 0.62603951
vn -0.83089390 -0.55375940 -5.4459663e-2
vn -0.60973609 -0.71013792 0.35203130
vn -0.68007224 -0.71013792 0.18222481
vn -0.54902191 -0.55375940 0.62603951
g Cylinder1_Cylinder1_auv
usemtl Cylinder1_auv
s 1
f 113/246/113 121/245/121 122/247/122 114/248/114
f 114/258/114 118/257/118 117/259/117 113/260/113
f 114/248/114 122/247/122 123/249/123 115/250/115
f 115/256/115 119/255/119 118/257/118 114/258/114
f 115/250/115 123/249/123 124/251/124 116/252/116
f 116/254/116 120/253/120 119/255/119 115/256/115
f 116/252/116 124/244/124 128/234/128 120/253/120
f 117/246/117 125/232/125 121/245/121 113/260/113
f 118/239/118 126/240/126 125/245/125 117/246/117
f 119/235/119 127/236/127 126/240/126 118/239/118
f 120/231/120 128/234/128 127/236/127 119/235/119
f 121/233/121 125/232/125 126/237/126 122/238/122
f 122/238/122 126/237/126 127/241/127 123/242/123
f 123/242/123 127/241/127 128/243/128 124/244/124
