# Exported from Wings 3D 1.5.4
mtllib open_cylinder_smooth.mtl
o Tube2
#96 vertices, 96 faces
v 0.50000000 1.00000000 0.0000000e+0
v 0.48296291 1.00000000 0.12940952
v 0.43301270 1.00000000 0.25000000
v 0.35355339 1.00000000 0.35355339
v 0.25000000 1.00000000 0.43301270
v 0.12940952 1.00000000 0.48296291
v 3.0616170e-17 1.00000000 0.50000000
v -0.12940952 1.00000000 0.48296291
v -0.25000000 1.00000000 0.43301270
v -0.35355339 1.00000000 0.35355339
v -0.43301270 1.00000000 0.25000000
v -0.48296291 1.00000000 0.12940952
v -0.50000000 1.00000000 6.1232340e-17
v -0.48296291 1.00000000 -0.12940952
v -0.43301270 1.00000000 -0.25000000
v -0.35355339 1.00000000 -0.35355339
v -0.25000000 1.00000000 -0.43301270
v -0.12940952 1.00000000 -0.48296291
v -9.1848510e-17 1.00000000 -0.50000000
v 0.12940952 1.00000000 -0.48296291
v 0.25000000 1.00000000 -0.43301270
v 0.35355339 1.00000000 -0.35355339
v 0.43301270 1.00000000 -0.25000000
v 0.48296291 1.00000000 -0.12940952
v 0.50000000 0.0000000e+0 0.0000000e+0
v 0.48296291 0.0000000e+0 0.12940952
v 0.43301270 0.0000000e+0 0.25000000
v 0.35355339 0.0000000e+0 0.35355339
v 0.25000000 0.0000000e+0 0.43301270
v 0.12940952 0.0000000e+0 0.48296291
v 3.0616170e-17 0.0000000e+0 0.50000000
v -0.12940952 0.0000000e+0 0.48296291
v -0.25000000 0.0000000e+0 0.43301270
v -0.35355339 0.0000000e+0 0.35355339
v -0.43301270 0.0000000e+0 0.25000000
v -0.48296291 0.0000000e+0 0.12940952
v -0.50000000 0.0000000e+0 6.1232340e-17
v -0.48296291 0.0000000e+0 -0.12940952
v -0.43301270 0.0000000e+0 -0.25000000
v -0.35355339 0.0000000e+0 -0.35355339
v -0.25000000 0.0000000e+0 -0.43301270
v -0.12940952 0.0000000e+0 -0.48296291
v -9.1848510e-17 0.0000000e+0 -0.50000000
v 0.12940952 0.0000000e+0 -0.48296291
v 0.25000000 0.0000000e+0 -0.43301270
v 0.35355339 0.0000000e+0 -0.35355339
v 0.43301270 0.0000000e+0 -0.25000000
v 0.48296291 0.0000000e+0 -0.12940952
v 0.48500000 1.00000000 0.0000000e+0
v 0.46847403 1.00000000 0.12552724
v 0.42002232 1.00000000 0.24250000
v 0.34294679 1.00000000 0.34294679
v 0.24250000 1.00000000 0.42002232
v 0.12552724 1.00000000 0.46847403
v 2.9697685e-17 1.00000000 0.48500000
v -0.12552724 1.00000000 0.46847403
v -0.24250000 1.00000000 0.42002232
v -0.34294679 1.00000000 0.34294679
v -0.42002232 1.00000000 0.24250000
v -0.46847403 1.00000000 0.12552724
v -0.48500000 1.00000000 5.9395370e-17
v -0.46847403 1.00000000 -0.12552724
v -0.42002232 1.00000000 -0.24250000
v -0.34294679 1.00000000 -0.34294679
v -0.24250000 1.00000000 -0.42002232
v -0.12552724 1.00000000 -0.46847403
v -8.9093055e-17 1.00000000 -0.48500000
v 0.12552724 1.00000000 -0.46847403
v 0.24250000 1.00000000 -0.42002232
v 0.34294679 1.00000000 -0.34294679
v 0.42002232 1.00000000 -0.24250000
v 0.46847403 1.00000000 -0.12552724
v 0.48500000 0.0000000e+0 0.0000000e+0
v 0.46847403 0.0000000e+0 0.12552724
v 0.42002232 0.0000000e+0 0.24250000
v 0.34294679 0.0000000e+0 0.34294679
v 0.24250000 0.0000000e+0 0.42002232
v 0.12552724 0.0000000e+0 0.46847403
v 2.9697685e-17 0.0000000e+0 0.48500000
v -0.12552724 0.0000000e+0 0.46847403
v -0.24250000 0.0000000e+0 0.42002232
v -0.34294679 0.0000000e+0 0.34294679
v -0.42002232 0.0000000e+0 0.24250000
v -0.46847403 0.0000000e+0 0.12552724
v -0.48500000 0.0000000e+0 5.9395370e-17
v -0.46847403 0.0000000e+0 -0.12552724
v -0.42002232 0.0000000e+0 -0.24250000
v -0.34294679 0.0000000e+0 -0.34294679
v -0.24250000 0.0000000e+0 -0.42002232
v -0.12552724 0.0000000e+0 -0.46847403
v -8.9093055e-17 0.0000000e+0 -0.48500000
v 0.12552724 0.0000000e+0 -0.46847403
v 0.24250000 0.0000000e+0 -0.42002232
v 0.34294679 0.0000000e+0 -0.34294679
v 0.42002232 0.0000000e+0 -0.24250000
v 0.46847403 0.0000000e+0 -0.12552724
vt 2.6000000e-3 0.32895010
vt 2.6000000e-3 0.65151960
vt 2.8740389e-3 3.0583856e-3
vt 2.8740389e-3 0.32562788
vt 9.3819183e-3 0.82687778
vt 1.4220461e-2 0.82687778
vt 1.4877563e-2 0.86862134
vt 1.4877563e-2 0.78513421
vt 1.4877563e-2 0.86862134
vt 1.9551236e-2 0.78638652
vt 1.9551236e-2 0.86736904
vt 1.9551236e-2 0.86736904
vt 3.0989977e-2 0.74623540
vt 3.0989977e-2 0.74623540
vt 3.0989977e-2 0.90752015
vt 3.0989977e-2 0.90752015
vt 3.5001070e-2 0.32895010
vt 3.5001070e-2 0.65151960
vt 3.5180278e-2 0.74865467
vt 3.5180278e-2 0.74865467
vt 3.5180278e-2 0.90510088
vt 3.5180278e-2 0.90510088
vt 3.6277204e-2 3.0583856e-3
vt 3.6277204e-2 0.32562788
vt 5.6621127e-2 0.94092332
vt 5.6621127e-2 0.71283224
vt 5.6621127e-2 0.94092332
vt 6.0042494e-2 0.71625360
vt 6.0042494e-2 0.93750195
vt 6.0042494e-2 0.93750195
vt 7.2732915e-2 0.32895010
vt 7.2732915e-2 0.65151960
vt 7.5176014e-2 3.0583856e-3
vt 7.5176014e-2 0.32562788
vt 9.0024292e-2 0.68720109
vt 9.0024292e-2 0.96655447
vt 9.0024292e-2 0.96655447
vt 9.2443564e-2 0.69139139
vt 9.2443564e-2 0.96236417
vt 9.2443564e-2 0.69139139
vt 9.2443564e-2 0.96236417
vt 0.11322417 0.32895010
vt 0.11322417 0.65151960
vt 0.11691958 3.0583856e-3
vt 0.11691958 0.32562788
vt 0.12892310 0.67108867
vt 0.12892310 0.98266688
vt 0.13017541 0.97799321
vt 0.13017541 0.67576235
vt 0.13017541 0.67576235
vt 0.13017541 0.97799321
vt 0.15371543 0.32895010
vt 0.15371543 0.65151960
vt 0.15866314 3.0583856e-3
vt 0.15866314 0.32562788
vt 0.17066667 0.66559303
vt 0.17066667 0.67043157
vt 0.17066667 0.98332398
vt 0.17066667 0.98332398
vt 0.17066667 0.98816253
vt 0.19144728 0.32895010
vt 0.19144728 0.65151960
vt 0.19756195 3.0583856e-3
vt 0.19756195 0.32562788
vt 0.21115792 0.67576235
vt 0.21115792 0.97799321
vt 0.21115792 0.67576235
vt 0.21115792 0.97799321
vt 0.21241023 0.67108867
vt 0.21241023 0.98266688
vt 0.22384835 0.32895010
vt 0.22384835 0.65151960
vt 0.23096512 3.0583856e-3
vt 0.23096512 0.32562788
vt 0.24888977 0.69139139
vt 0.24888977 0.96236417
vt 0.24888977 0.69139139
vt 0.24888977 0.96236417
vt 0.25130904 0.68720109
vt 0.25130904 0.96655447
vt 0.25130904 0.96655447
vt 0.25624942 0.32895010
vt 0.25624942 0.65151960
vt 0.26436828 3.0583856e-3
vt 0.26436828 0.32562788
vt 0.28129084 0.71625360
vt 0.28129084 0.93750195
vt 0.28471221 0.71283224
vt 0.28471221 0.94092332
vt 0.28471221 0.94092332
vt 0.29398126 0.32895010
vt 0.29398126 0.65151960
vt 0.30326709 3.0583856e-3
vt 0.30326709 0.32562788
vt 0.30615306 0.74865467
vt 0.30615306 0.90510088
vt 0.30615306 0.90510088
vt 0.31034336 0.90752015
vt 0.31034336 0.74623540
vt 0.31034336 0.74623540
vt 0.31034336 0.90752015
vt 0.32178210 0.78638652
vt 0.32178210 0.86736904
vt 0.32178210 0.86736904
vt 0.32645577 0.78513421
vt 0.32645577 0.86862134
vt 0.32645577 0.86862134
vt 0.32711287 0.82687778
vt 0.33195142 0.82687778
vt 0.33447252 0.32895010
vt 0.33447252 0.65151960
vt 0.34501066 3.0583856e-3
vt 0.34501066 0.32562788
vt 0.37496378 0.32895010
vt 0.37496378 0.65151960
vt 0.38675422 3.0583856e-3
vt 0.38675422 0.32562788
vt 0.41269562 0.32895010
vt 0.41269562 0.65151960
vt 0.42565303 3.0583856e-3
vt 0.42565303 0.32562788
vt 0.44509669 0.32895010
vt 0.44509669 0.65151960
vt 0.45905620 3.0583856e-3
vt 0.45905620 0.32562788
vt 0.47749776 0.32895010
vt 0.47749776 0.65151960
vt 0.49245936 3.0583856e-3
vt 0.49245936 0.32562788
vt 0.51522961 0.32895010
vt 0.51522961 0.65151960
vt 0.53135817 3.0583856e-3
vt 0.53135817 0.32562788
vt 0.55572087 0.32895010
vt 0.55572087 0.65151960
vt 0.57310174 3.0583856e-3
vt 0.57310174 0.32562788
vt 0.59621212 0.32895010
vt 0.59621212 0.65151960
vt 0.61484530 3.0583856e-3
vt 0.61484530 0.32562788
vt 0.63394397 0.32895010
vt 0.63394397 0.65151960
vt 0.65374411 3.0583856e-3
vt 0.65374411 0.32562788
vt 0.66634504 0.32895010
vt 0.66634504 0.65151960
vt 0.68714727 3.0583856e-3
vt 0.68714727 0.32562788
vt 0.69874611 0.32895010
vt 0.69874611 0.65151960
vt 0.72055044 3.0583856e-3
vt 0.72055044 0.32562788
vt 0.73647795 0.32895010
vt 0.73647795 0.65151960
vt 0.75944925 3.0583856e-3
vt 0.75944925 0.32562788
vt 0.77696921 0.32895010
vt 0.77696921 0.65151960
vt 0.80119281 3.0583856e-3
vt 0.80119281 0.32562788
vt 0.81746047 0.32895010
vt 0.81746047 0.65151960
vt 0.84293638 3.0583856e-3
vt 0.84293638 0.32562788
vt 0.85519231 0.32895010
vt 0.85519231 0.65151960
vt 0.88183519 3.0583856e-3
vt 0.88183519 0.32562788
vt 0.88759338 0.32895010
vt 0.88759338 0.65151960
vt 0.91523835 3.0583856e-3
vt 0.91523835 0.32562788
vn 0.70406259 0.71013792 -1.4782715e-16
vn 0.68007224 0.71013792 0.18222481
vn 0.60973609 0.71013792 0.35203130
vn 0.49784743 0.71013792 0.49784743
vn 0.35203130 0.71013792 0.60973609
vn 0.18222481 0.71013792 0.68007224
vn 9.8551434e-17 0.71013792 0.70406259
vn -0.18222481 0.71013792 0.68007224
vn -0.35203130 0.71013792 0.60973609
vn -0.49784743 0.71013792 0.49784743
vn -0.60973609 0.71013792 0.35203130
vn -0.68007224 0.71013792 0.18222481
vn -0.70406259 0.71013792 2.1681315e-16
vn -0.68007224 0.71013792 -0.18222481
vn -0.60973609 0.71013792 -0.35203130
vn -0.49784743 0.71013792 -0.49784743
vn -0.35203130 0.71013792 -0.60973609
vn -0.18222481 0.71013792 -0.68007224
vn -2.9565430e-16 0.71013792 -0.70406259
vn 0.18222481 0.71013792 -0.68007224
vn 0.35203130 0.71013792 -0.60973609
vn 0.49784743 0.71013792 -0.49784743
vn 0.60973609 0.71013792 -0.35203130
vn 0.68007224 0.71013792 -0.18222481
vn 0.70406259 -0.71013792 -1.4782715e-16
vn 0.68007224 -0.71013792 0.18222481
vn 0.60973609 -0.71013792 0.35203130
vn 0.49784743 -0.71013792 0.49784743
vn 0.35203130 -0.71013792 0.60973609
vn 0.18222481 -0.71013792 0.68007224
vn 9.8551434e-17 -0.71013792 0.70406259
vn -0.18222481 -0.71013792 0.68007224
vn -0.35203130 -0.71013792 0.60973609
vn -0.49784743 -0.71013792 0.49784743
vn -0.60973609 -0.71013792 0.35203130
vn -0.68007224 -0.71013792 0.18222481
vn -0.70406259 -0.71013792 2.1681315e-16
vn -0.68007224 -0.71013792 -0.18222481
vn -0.60973609 -0.71013792 -0.35203130
vn -0.49784743 -0.71013792 -0.49784743
vn -0.35203130 -0.71013792 -0.60973609
vn -0.18222481 -0.71013792 -0.68007224
vn -2.9565430e-16 -0.71013792 -0.70406259
vn 0.18222481 -0.71013792 -0.68007224
vn 0.35203130 -0.71013792 -0.60973609
vn 0.49784743 -0.71013792 -0.49784743
vn 0.60973609 -0.71013792 -0.35203130
vn 0.68007224 -0.71013792 -0.18222481
vn -0.70406259 0.71013792 1.6753744e-16
vn -0.68007224 0.71013792 -0.18222481
vn -0.60973609 0.71013792 -0.35203130
vn -0.49784743 0.71013792 -0.49784743
vn -0.35203130 0.71013792 -0.60973609
vn -0.18222481 0.71013792 -0.68007224
vn -1.0840658e-16 0.71013792 -0.70406259
vn 0.18222481 0.71013792 -0.68007224
vn 0.35203130 0.71013792 -0.60973609
vn 0.49784743 0.71013792 -0.49784743
vn 0.60973609 0.71013792 -0.35203130
vn 0.68007224 0.71013792 -0.18222481
vn 0.70406259 0.71013792 -2.2666830e-16
vn 0.68007224 0.71013792 0.18222481
vn 0.60973609 0.71013792 0.35203130
vn 0.49784743 0.71013792 0.49784743
vn 0.35203130 0.71013792 0.60973609
vn 0.18222481 0.71013792 0.68007224
vn 3.1536459e-16 0.71013792 0.70406259
vn -0.18222481 0.71013792 0.68007224
vn -0.35203130 0.71013792 0.60973609
vn -0.49784743 0.71013792 0.49784743
vn -0.60973609 0.71013792 0.35203130
vn -0.68007224 0.71013792 0.18222481
vn -0.70406259 -0.71013792 1.6753744e-16
vn -0.68007224 -0.71013792 -0.18222481
vn -0.60973609 -0.71013792 -0.35203130
vn -0.49784743 -0.71013792 -0.49784743
vn -0.35203130 -0.71013792 -0.60973609
vn -0.18222481 -0.71013792 -0.68007224
vn -1.0840658e-16 -0.71013792 -0.70406259
vn 0.18222481 -0.71013792 -0.68007224
vn 0.35203130 -0.71013792 -0.60973609
vn 0.49784743 -0.71013792 -0.49784743
vn 0.60973609 -0.71013792 -0.35203130
vn 0.68007224 -0.71013792 -0.18222481
vn 0.70406259 -0.71013792 -2.2666830e-16
vn 0.68007224 -0.71013792 0.18222481
vn 0.60973609 -0.71013792 0.35203130
vn 0.49784743 -0.71013792 0.49784743
vn 0.35203130 -0.71013792 0.60973609
vn 0.18222481 -0.71013792 0.68007224
vn 3.1536459e-16 -0.71013792 0.70406259
vn -0.18222481 -0.71013792 0.68007224
vn -0.35203130 -0.71013792 0.60973609
vn -0.49784743 -0.71013792 0.49784743
vn -0.60973609 -0.71013792 0.35203130
vn -0.68007224 -0.71013792 0.18222481
g Tube2_Tube2_auv
usemtl Tube2_auv
s 1
f 1/161/1 25/160/25 48/164/48 24/165/24
f 1/109/1 49/108/49 50/102/50 2/105/2
f 2/157/2 26/156/26 25/160/25 1/161/1
f 2/105/2 50/102/50 51/95/51 3/100/3
f 3/153/3 27/152/27 26/156/26 2/157/2
f 3/100/3 51/95/51 52/86/52 4/88/4
f 4/149/4 28/148/28 27/152/27 3/153/3
f 4/88/4 52/86/52 53/77/53 5/79/5
f 5/145/5 29/144/29 28/148/28 4/149/4
f 5/79/5 53/77/53 54/67/54 6/69/6
f 6/141/6 30/140/30 29/144/29 5/145/5
f 6/69/6 54/67/54 55/57/55 7/56/7
f 7/137/7 31/136/31 30/140/30 6/141/6
f 7/56/7 55/57/55 56/49/56 8/46/8
f 8/133/8 32/132/32 31/136/31 7/137/7
f 8/46/8 56/49/56 57/40/57 9/35/9
f 9/129/9 33/128/33 32/132/32 8/133/8
f 9/35/9 57/40/57 58/28/58 10/26/10
f 10/125/10 34/124/34 33/128/33 9/129/9
f 10/26/10 58/28/58 59/19/59 11/13/11
f 11/121/11 35/120/35 34/124/34 10/125/10
f 11/13/11 59/19/59 60/10/60 12/8/12
f 12/117/12 36/116/36 35/120/35 11/121/11
f 12/8/12 60/10/60 61/6/61 13/5/13
f 13/113/13 37/112/37 36/116/36 12/117/12
f 13/5/13 61/6/61 62/11/62 14/7/14
f 14/94/14 38/93/38 37/112/37 13/113/13
f 14/7/14 62/11/62 63/21/63 15/15/15
f 15/85/15 39/84/39 38/93/38 14/94/14
f 15/15/15 63/21/63 64/29/64 16/25/16
f 16/74/16 40/73/40 39/84/39 15/85/15
f 16/25/16 64/29/64 65/39/65 17/36/17
f 17/64/17 41/63/41 40/73/40 16/74/16
f 17/36/17 65/39/65 66/48/66 18/47/18
f 18/55/18 42/54/42 41/63/41 17/64/17
f 18/47/18 66/48/66 67/58/67 19/60/19
f 19/45/19 43/44/43 42/54/42 18/55/18
f 19/60/19 67/58/67 68/66/68 20/70/20
f 20/34/20 44/33/44 43/44/43 19/45/19
f 20/70/20 68/66/68 69/76/69 21/81/21
f 21/24/21 45/23/45 44/33/44 20/34/20
f 21/81/21 69/76/69 70/87/70 22/90/22
f 22/4/22 46/3/46 45/23/45 21/24/21
f 22/90/22 70/87/70 71/97/71 23/98/23
f 23/169/23 47/168/47 46/172/46 22/173/22
f 23/98/23 71/97/71 72/104/72 24/107/24
f 24/165/24 48/164/48 47/168/47 23/169/23
f 24/107/24 72/104/72 49/108/49 1/109/1
f 25/5/25 73/6/73 96/12/96 48/9/48
f 26/8/26 74/10/74 73/6/73 25/5/25
f 27/14/27 75/20/75 74/10/74 26/8/26
f 28/26/28 76/28/76 75/20/75 27/14/27
f 29/35/29 77/38/77 76/28/76 28/26/28
f 30/46/30 78/50/78 77/38/77 29/35/29
f 31/56/31 79/57/79 78/50/78 30/46/30
f 32/69/32 80/65/80 79/57/79 31/56/31
f 33/79/33 81/75/81 80/65/80 32/69/32
f 34/88/34 82/86/82 81/75/81 33/79/33
f 35/99/35 83/95/83 82/86/82 34/88/34
f 36/105/36 84/102/84 83/95/83 35/99/35
f 37/109/37 85/108/85 84/102/84 36/105/36
f 38/106/38 86/103/86 85/108/85 37/109/37
f 39/101/39 87/96/87 86/103/86 38/106/38
f 40/89/40 88/87/88 87/96/87 39/101/39
f 41/80/41 89/78/89 88/87/88 40/89/40
f 42/70/42 90/68/90 89/78/89 41/80/41
f 43/60/43 91/59/91 90/68/90 42/70/42
f 44/47/44 92/51/92 91/59/91 43/60/43
f 45/37/45 93/41/93 92/51/92 44/47/44
f 46/27/46 94/30/94 93/41/93 45/37/45
f 47/16/47 95/22/95 94/30/94 46/27/46
f 48/9/48 96/12/96 95/22/95 47/16/47
f 49/111/49 73/110/73 74/114/74 50/115/50
f 50/115/50 74/114/74 75/118/75 51/119/51
f 51/119/51 75/118/75 76/122/76 52/123/52
f 52/123/52 76/122/76 77/126/77 53/127/53
f 53/127/53 77/126/77 78/130/78 54/131/54
f 54/131/54 78/130/78 79/134/79 55/135/55
f 55/135/55 79/134/79 80/138/80 56/139/56
f 56/139/56 80/138/80 81/142/81 57/143/57
f 57/143/57 81/142/81 82/146/82 58/147/58
f 58/147/58 82/146/82 83/150/83 59/151/59
f 59/151/59 83/150/83 84/154/84 60/155/60
f 60/155/60 84/154/84 85/158/85 61/159/61
f 61/159/61 85/158/85 86/162/86 62/163/62
f 62/163/62 86/162/86 87/166/87 63/167/63
f 63/167/63 87/166/87 88/170/88 64/171/64
f 64/2/64 88/1/88 89/17/89 65/18/65
f 65/18/65 89/17/89 90/31/90 66/32/66
f 66/32/66 90/31/90 91/42/91 67/43/67
f 67/43/67 91/42/91 92/52/92 68/53/68
f 68/53/68 92/52/92 93/61/93 69/62/69
f 69/62/69 93/61/93 94/71/94 70/72/70
f 70/72/70 94/71/94 95/82/95 71/83/71
f 71/83/71 95/82/95 96/91/96 72/92/72
f 72/92/72 96/91/96 73/110/73 49/111/49
